<svg width="55" height="56" viewBox="0 0 55 56" fill="none" xmlns="http://www.w3.org/2000/svg">
<path d="M27.5 14.56C24.8893 14.56 22.3372 15.3482 20.1665 16.8251C17.9957 18.3019 16.3039 20.4009 15.3048 22.8567C14.3057 25.3126 14.0443 28.0149 14.5536 30.622C15.063 33.2291 16.3201 35.6239 18.1662 37.5035C20.0122 39.3831 22.3643 40.6632 24.9248 41.1818C27.4854 41.7003 30.1394 41.4342 32.5514 40.4169C34.9634 39.3997 37.025 37.6771 38.4754 35.4669C39.9258 33.2567 40.7 30.6582 40.7 28C40.7 24.4355 39.3093 21.017 36.8338 18.4965C34.3583 15.976 31.0009 14.56 27.5 14.56ZM27.5 36.96C25.7595 36.96 24.0581 36.4345 22.611 35.45C21.1638 34.4654 20.0359 33.0661 19.3699 31.4288C18.7038 29.7916 18.5295 27.9901 18.8691 26.252C19.2086 24.5139 20.0468 22.9174 21.2775 21.6643C22.5082 20.4112 24.0762 19.5579 25.7832 19.2122C27.4902 18.8664 29.2596 19.0439 30.8676 19.722C32.4756 20.4002 33.85 21.5486 34.8169 23.0221C35.7839 24.4956 36.3 26.2279 36.3 28C36.2927 30.3741 35.3633 32.6488 33.7145 34.3275C32.0658 36.0062 29.8317 36.9526 27.5 36.96ZM39.6 0H15.4C11.3157 0 7.39862 1.652 4.51056 4.59257C1.6225 7.53314 0 11.5214 0 15.68V40.32C0 44.4786 1.6225 48.4669 4.51056 51.4074C7.39862 54.348 11.3157 56 15.4 56H39.6C43.6843 56 47.6014 54.348 50.4894 51.4074C53.3775 48.4669 55 44.4786 55 40.32V15.68C55 11.5214 53.3775 7.53314 50.4894 4.59257C47.6014 1.652 43.6843 0 39.6 0ZM50.6 40.32C50.6 41.7908 50.3155 43.2472 49.7627 44.6061C49.2099 45.9649 48.3996 47.1996 47.3782 48.2396C46.3567 49.2796 45.1441 50.1046 43.8095 50.6675C42.4749 51.2303 41.0445 51.52 39.6 51.52H15.4C13.9555 51.52 12.5251 51.2303 11.1905 50.6675C9.8559 50.1046 8.64327 49.2796 7.62183 48.2396C6.60038 47.1996 5.79013 45.9649 5.23733 44.6061C4.68452 43.2472 4.4 41.7908 4.4 40.32V15.68C4.4 12.7096 5.55893 9.86081 7.62183 7.7604C9.68473 5.66 12.4826 4.48 15.4 4.48H39.6C41.0445 4.48 42.4749 4.7697 43.8095 5.33255C45.1441 5.8954 46.3567 6.72039 47.3782 7.7604C48.3996 8.80042 49.2099 10.0351 49.7627 11.3939C50.3155 12.7528 50.6 14.2092 50.6 15.68V40.32ZM45.1 13.44C45.1 14.1045 44.9065 14.7542 44.5438 15.3067C44.1812 15.8593 43.6659 16.2899 43.0629 16.5442C42.4599 16.7985 41.7963 16.8651 41.1562 16.7354C40.5161 16.6058 39.9281 16.2858 39.4665 15.8159C39.005 15.346 38.6907 14.7473 38.5634 14.0955C38.4361 13.4437 38.5014 12.7681 38.7512 12.1542C39.001 11.5402 39.4239 11.0155 39.9666 10.6463C40.5093 10.2771 41.1473 10.08 41.8 10.08C42.6752 10.08 43.5146 10.434 44.1335 11.0641C44.7523 11.6942 45.1 12.5489 45.1 13.44Z" fill="#424242"/>
</svg>
