<svg width="261" height="133" viewBox="0 0 261 133" fill="none" xmlns="http://www.w3.org/2000/svg">
<g clip-path="url(#clip0_46_702)">
<path d="M76.2368 131.534L76.1375 132.652C75.5171 132.826 74.8719 132.926 74.1273 132.926C72.415 132.926 71.1245 132.453 70.2807 131.509C69.4369 130.564 68.9902 129.421 68.9902 128.079C68.9902 126.737 69.4618 125.444 70.4296 124.4C71.3975 123.381 72.688 122.859 74.3011 122.859C74.7478 122.859 75.2193 122.934 75.7156 123.058L75.5171 124.251C74.9463 124.077 74.4252 123.978 73.9784 123.978C72.7872 123.978 71.869 124.351 71.2486 125.096C70.6282 125.842 70.3055 126.762 70.3055 127.83C70.3055 128.899 70.653 129.869 71.3727 130.664C72.0924 131.459 73.085 131.832 74.3507 131.832C74.8222 131.832 75.4675 131.733 76.2368 131.509V131.534Z" fill="#525252"/>
<path d="M87.0074 131.633L86.9578 132.727H81.0762C81.1258 131.484 81.1754 129.794 81.1754 127.606C81.1754 125.742 81.1506 124.201 81.0762 122.983H82.4659C82.4163 124.002 82.3667 125.519 82.3667 127.606C82.3667 129.321 82.3418 130.664 82.2922 131.708C83.7812 131.708 85.3447 131.683 86.9826 131.633H87.0074Z" fill="#525252"/>
<path d="M100.086 127.706C100.086 129.322 99.6148 130.614 98.6718 131.559C97.7287 132.528 96.6368 133 95.4208 133C94.2047 133 93.1872 132.553 92.3186 131.683C91.4252 130.788 90.9785 129.595 90.9785 128.104C90.9785 126.463 91.45 125.196 92.3931 124.226C93.3361 123.282 94.4281 122.785 95.6441 122.785C96.8601 122.785 97.8776 123.232 98.7462 124.102C99.6396 124.997 100.086 126.19 100.086 127.681V127.706ZM98.771 127.88C98.771 126.588 98.4236 125.593 97.7535 124.897C97.0835 124.201 96.3142 123.829 95.4208 123.829C94.6018 123.829 93.8821 124.201 93.2369 124.947C92.5916 125.693 92.2938 126.687 92.2938 127.93C92.2938 129.172 92.6412 130.216 93.3113 130.912C93.9814 131.608 94.7755 131.956 95.6441 131.956C96.4631 131.956 97.1828 131.583 97.828 130.838C98.4732 130.092 98.771 129.098 98.771 127.88Z" fill="#525252"/>
<path d="M111.502 122.983L111.452 124.027C110.459 123.978 109.442 123.953 108.4 123.953C108.4 124.897 108.4 126.115 108.4 127.582C108.4 129.197 108.4 130.912 108.474 132.702H107.109C107.159 131.012 107.208 129.297 107.208 127.582C107.208 126.14 107.208 124.922 107.159 123.953C106.414 123.953 105.397 123.978 104.057 124.052L104.106 122.983H111.527H111.502Z" fill="#525252"/>
<path d="M123.264 132.727H121.85C121.9 131.012 121.924 129.471 121.924 128.104H117.457C117.457 129.222 117.457 130.763 117.532 132.727H116.117C116.192 130.912 116.216 129.197 116.216 127.606C116.216 126.016 116.192 124.4 116.117 122.983H117.532C117.482 124.4 117.432 125.792 117.432 127.134H121.924C121.924 126.065 121.9 124.674 121.825 122.983H123.24C123.165 124.375 123.14 125.916 123.14 127.606C123.14 129.471 123.19 131.161 123.24 132.727H123.264Z" fill="#525252"/>
<path d="M135.176 131.583L135.127 132.702H129.121C129.196 131.161 129.22 129.446 129.22 127.582C129.22 125.817 129.196 124.301 129.121 122.958H134.755L134.705 124.077C133.34 124.027 131.876 123.978 130.362 123.978C130.387 124.748 130.412 125.792 130.412 127.109C131.727 127.109 132.918 127.084 133.936 127.01V128.128C132.844 128.079 131.652 128.054 130.412 128.054C130.412 129.321 130.412 130.539 130.486 131.658C132.149 131.658 133.712 131.633 135.201 131.558L135.176 131.583Z" fill="#525252"/>
<path d="M145.799 130.192C145.799 132.031 144.509 132.951 141.952 132.951C141.009 132.951 140.19 132.851 139.471 132.627L139.744 131.459C140.587 131.757 141.382 131.882 142.126 131.882C143.814 131.882 144.657 131.41 144.657 130.44C144.657 129.968 144.434 129.545 144.012 129.197C143.714 128.974 143.144 128.651 142.275 128.278C141.382 127.88 140.736 127.507 140.364 127.159C139.868 126.687 139.62 126.115 139.62 125.395C139.62 124.674 139.868 124.052 140.389 123.605C140.96 123.083 141.779 122.834 142.821 122.834C144.012 122.834 144.806 122.909 145.253 123.058L145.079 124.251C144.335 124.003 143.516 123.903 142.672 123.903C141.382 123.903 140.761 124.326 140.761 125.196C140.761 125.618 140.935 125.966 141.307 126.24C141.555 126.414 142.076 126.687 142.895 127.035C143.814 127.433 144.509 127.83 144.906 128.178C145.526 128.725 145.849 129.396 145.849 130.192H145.799Z" fill="#525252"/>
<path d="M163.022 130.192C163.022 132.031 161.731 132.951 159.175 132.951C158.232 132.951 157.413 132.851 156.693 132.627L156.966 131.459C157.81 131.757 158.604 131.882 159.349 131.882C161.036 131.882 161.88 131.41 161.88 130.44C161.88 129.968 161.657 129.545 161.235 129.197C160.937 128.974 160.366 128.651 159.498 128.278C158.604 127.88 157.959 127.507 157.587 127.159C157.09 126.687 156.842 126.115 156.842 125.395C156.842 124.674 157.09 124.052 157.612 123.605C158.182 123.083 159.001 122.834 160.044 122.834C161.235 122.834 162.029 122.909 162.476 123.058L162.302 124.251C161.557 124.003 160.739 123.903 159.895 123.903C158.629 123.903 157.984 124.326 157.984 125.196C157.984 125.618 158.158 125.966 158.53 126.24C158.778 126.414 159.299 126.687 160.118 127.035C161.036 127.433 161.706 127.83 162.128 128.178C162.749 128.725 163.071 129.396 163.071 130.192H163.022Z" fill="#525252"/>
<path d="M175.38 132.727H173.965C174.015 131.012 174.04 129.471 174.04 128.104H169.573C169.573 129.222 169.573 130.763 169.647 132.727H168.232C168.307 130.912 168.332 129.197 168.332 127.606C168.332 126.016 168.307 124.4 168.232 122.983H169.647C169.597 124.4 169.548 125.792 169.548 127.134H174.04C174.04 126.065 174.015 124.674 173.94 122.983H175.355C175.28 124.375 175.256 125.916 175.256 127.606C175.256 129.471 175.28 131.161 175.355 132.727H175.38Z" fill="#525252"/>
<path d="M189.7 127.706C189.7 129.322 189.228 130.614 188.285 131.559C187.342 132.503 186.25 133 185.034 133C183.818 133 182.825 132.553 181.932 131.683C181.039 130.788 180.592 129.595 180.592 128.104C180.592 126.463 181.063 125.196 182.006 124.226C182.949 123.282 184.041 122.785 185.257 122.785C186.473 122.785 187.491 123.232 188.36 124.102C189.253 124.997 189.7 126.19 189.7 127.681V127.706ZM188.384 127.88C188.384 126.588 188.037 125.593 187.367 124.897C186.697 124.201 185.927 123.829 185.034 123.829C184.215 123.829 183.495 124.201 182.85 124.947C182.205 125.693 181.907 126.687 181.907 127.93C181.907 129.172 182.255 130.216 182.925 130.912C183.595 131.608 184.389 131.956 185.257 131.956C186.076 131.956 186.796 131.583 187.441 130.838C188.087 130.092 188.384 129.098 188.384 127.88Z" fill="#525252"/>
<path d="M201.438 125.394C201.438 126.538 201.017 127.383 200.148 127.954C199.279 128.526 198.138 128.8 196.674 128.8C196.5 128.8 196.326 128.8 196.202 128.8C196.202 129.893 196.252 131.186 196.326 132.727H194.887C194.961 131.31 194.986 129.62 194.986 127.606C194.986 125.891 194.961 124.35 194.887 122.983H195.954C195.954 122.983 196.401 122.983 196.947 122.983C197.493 122.983 197.939 122.983 198.311 122.983C199.255 122.983 200.024 123.207 200.595 123.63C201.165 124.077 201.438 124.674 201.438 125.444V125.394ZM200.198 125.817C200.198 124.549 199.329 123.903 197.592 123.903C197.17 123.903 196.674 123.928 196.152 124.002C196.177 124.823 196.202 126.09 196.202 127.805C196.376 127.805 196.599 127.805 196.847 127.805C199.081 127.805 200.222 127.134 200.222 125.792L200.198 125.817Z" fill="#525252"/>
<path d="M0 98.7495L6.20424 94.1513C9.43045 96.4131 12.9296 98.1281 16.7018 99.346C20.474 100.564 24.3454 101.16 28.2913 101.16C31.7161 101.16 34.8678 100.663 37.7962 99.6691C40.7246 98.6749 43.256 97.2085 45.415 95.2946C47.5741 93.3559 49.2617 90.9947 50.4777 88.2109C51.6937 85.4271 52.2893 82.2705 52.2893 78.7659C52.2893 75.2614 51.6193 72.0799 50.2792 69.5198C48.9391 66.9597 47.1522 64.6731 44.9683 62.7095C42.7844 60.7459 40.2531 58.9315 37.424 57.3159C34.5948 55.7003 31.6913 54.1096 28.738 52.5189C25.7848 50.953 22.8812 49.2877 20.0521 47.523C17.223 45.7583 14.6916 43.6953 12.4333 41.3092C10.1998 38.9231 8.38813 36.189 7.04802 33.0821C5.7079 29.9752 5.03784 26.2718 5.03784 21.947C5.03784 18.2685 5.68308 15.0124 6.99838 12.2286C8.28887 9.44487 10.1005 7.15819 12.3837 5.34377C14.6668 3.5542 17.3471 2.18716 20.3995 1.29237C23.452 0.397588 26.6782 -0.0498047 30.103 -0.0498047C33.2547 -0.0498047 36.2824 0.422444 39.186 1.36694C42.1144 2.31144 44.8691 3.65362 47.4748 5.34377L45.9858 10.6131C43.653 7.38189 40.8735 4.99579 37.6225 3.45477C34.3715 1.91375 30.7979 1.1681 26.852 1.1681C24.1469 1.1681 21.6156 1.64035 19.2331 2.58484C16.8507 3.52934 14.7661 4.84666 12.9793 6.56167C11.1925 8.27668 9.77788 10.2899 8.73557 12.6263C7.69326 14.9627 7.19692 17.4731 7.19692 20.1823C7.19692 25.1285 8.36332 29.155 10.6961 32.2619C13.0289 35.3688 15.9573 38.078 19.4565 40.4144C22.9557 42.7508 26.7279 44.8883 30.773 46.827C34.8182 48.7658 38.5904 51.0276 42.0896 53.6374C45.5888 56.2472 48.5172 59.4286 50.85 63.1569C53.1828 66.8852 54.3491 71.6822 54.3491 77.5232C54.3491 81.2017 53.7287 84.582 52.4631 87.6392C51.1974 90.6964 49.4354 93.3062 47.1522 95.4686C44.8691 97.631 42.164 99.3212 39.0619 100.539C35.9598 101.757 32.5847 102.353 28.8869 102.353C24.0476 102.353 19.2331 102.006 14.4683 101.334C9.70343 100.663 4.91376 99.7934 0.0496339 98.6998L0 98.7495Z" fill="#212121"/>
<path d="M77.1816 0H99.5417C97.9286 0 96.5637 0.323117 95.4221 0.944496C94.3053 1.56588 93.3871 2.43581 92.6674 3.50458C91.9477 4.57335 91.4266 5.79125 91.1288 7.15829C90.8062 8.50047 90.6572 9.89236 90.6572 11.334V91.5913C90.6572 93.0329 90.8062 94.4248 91.1288 95.767C91.4514 97.1091 91.9477 98.3271 92.6674 99.4207C93.3871 100.514 94.3053 101.359 95.4221 101.981C96.5389 102.602 97.9038 102.925 99.5417 102.925H77.1816C78.0999 102.925 79.7626 102.851 81.3013 101.981C82.418 101.359 83.3611 100.489 84.1304 99.4207C84.8997 98.3519 85.4209 97.134 85.7435 95.767C86.0661 94.4248 86.215 93.0329 86.215 91.5913V11.334C86.215 9.89236 86.0661 8.50047 85.7435 7.15829C85.4209 5.81611 84.8997 4.59821 84.1304 3.50458C83.3611 2.43581 82.418 1.56588 81.3013 0.944496C80.1845 0.323117 78.8196 0 77.1816 0Z" fill="#212121"/>
<path d="M178.607 102.925C152.078 103.174 141.779 103.224 139.893 103.149C139.471 103.149 138.032 103.05 136.022 103.05C134.284 103.05 133.416 103.05 133.366 103.05C130.959 103.099 130.512 103.248 130.14 102.876C129.817 102.552 129.892 101.608 129.991 99.7935C130.041 99.023 130.065 98.6502 130.14 98.1282C130.438 95.9161 130.214 92.6849 130.239 92.0635C131.083 47.1503 131.654 14.5154 131.728 11.334C131.728 11.0605 131.753 9.32069 131.257 7.15829C130.934 5.81611 130.438 4.59821 129.718 3.50458C128.998 2.43581 128.08 1.56588 126.963 0.944496C125.822 0.323117 124.457 0 122.844 0H145.08C143.467 0 142.102 0.323117 140.96 0.944496C139.819 1.56588 138.95 2.43581 138.28 3.50458C137.61 4.57335 137.114 5.79125 136.791 7.15829C136.468 8.50047 136.319 9.89236 136.319 11.334V91.5913C136.319 94.9219 136.915 97.3825 138.131 99.023C139.347 100.663 141.655 101.459 145.055 101.459H169.574C171.286 101.459 172.875 101.011 174.364 100.117C175.853 99.2218 177.168 98.1033 178.334 96.7363C179.501 95.3941 180.543 93.9277 181.437 92.3618C182.33 90.7959 183.05 89.2798 183.596 87.8382L178.607 102.95V102.925Z" fill="#212121"/>
<path d="M191.785 102.826C191.785 102.826 192.976 102.776 194.441 101.981C194.987 101.682 195.384 101.359 195.582 101.21C196.227 100.713 196.773 100.116 197.27 99.4205C198.039 98.3517 198.56 97.1338 198.883 95.7668C199.205 94.4246 199.354 93.0327 199.354 91.5911V11.3338C199.354 9.89219 199.205 8.5003 198.883 7.15813C198.56 5.81595 198.039 4.59804 197.27 3.50442C196.5 2.43564 195.557 1.56571 194.441 0.944333C193.324 0.322954 209.703 0.322954 208.586 0.944333C207.469 1.56571 206.551 2.43564 205.832 3.50442C205.112 4.57319 204.591 5.79109 204.293 7.15813C203.97 8.5003 203.821 9.89219 203.821 11.3338L204.64 48.02C207.643 46.4044 211.887 43.8692 216.503 40.1409C218.985 38.1525 219.382 37.556 225.884 31.1682C225.884 31.1682 239.161 18.0944 244.546 10.4639C245.415 9.24596 246.01 7.87893 246.01 7.87893C246.283 7.25755 246.457 6.76044 246.556 6.46218C246.879 5.49283 247.053 4.99573 247.053 4.29978C247.053 3.80268 247.053 3.20615 246.705 2.58477C246.407 2.06282 245.936 1.7397 245.688 1.54086C245.688 1.54086 245.365 1.31716 245.018 1.11832C243.777 0.472085 241.618 0.322954 241.618 0.298099C241.618 0.223533 248.815 0.397519 251.321 0.44723C254.547 0.49694 260.106 0.521795 260.106 0.670926C260.106 0.745492 258.915 0.695781 257.55 1.29231C257.327 1.39173 256.979 1.54086 256.582 1.76455C256.483 1.81426 255.912 2.11253 255.341 2.51021C254.299 3.23101 253.505 4.02637 253.133 4.3992C252.115 5.46797 251.544 6.41247 250.8 7.60552C250.204 8.57487 250.155 8.74886 249.609 9.6685C248.79 11.0355 247.996 12.0546 247.45 12.7257C238.788 23.0157 230.127 33.3306 221.441 43.6207C227 52.3697 231.319 59.5528 234.247 64.5238C234.247 64.5238 244.695 81.1271 251.42 92.5605C252.81 94.9217 253.505 96.0899 253.952 97.0096C254.2 97.5315 254.647 98.4512 255.366 99.6442C255.962 100.638 256.26 101.136 256.632 101.558C258.444 103.546 261 103.497 260.975 103.845C260.95 104.242 257.724 104.218 253.381 104.193C249.758 104.193 246.854 104.143 246.829 103.845C246.829 103.671 247.772 103.596 249.311 102.875C250.452 102.329 251.172 101.981 251.445 101.285C251.644 100.788 251.396 100.141 250.899 98.8737C250.428 97.6558 249.906 96.7113 248.566 94.2258C248.566 94.1761 248.492 94.1015 248.442 93.9772C248.244 93.6293 247.896 93.0079 247.425 92.2871C247.201 91.9391 246.953 91.5911 246.631 91.1686C245.166 89.1802 234.669 73.0492 218.19 47.5229L203.772 64.6481V91.6408C203.772 93.0824 203.921 94.4743 204.243 95.8165C204.566 97.1587 205.062 98.3766 205.782 99.4702C205.881 99.6442 206.378 100.315 207.172 101.061C207.618 101.483 208.264 102.105 209.281 102.602C210.175 103.049 210.671 103.049 210.671 103.149C210.671 103.72 191.785 103.273 191.785 102.875V102.826Z" fill="#212121"/>
<path d="M91.2768 6.11426C90.4579 54.4079 109.989 82.4445 130.314 99.2714C130.81 99.6691 131.307 100.092 131.803 100.489" stroke="#212121" stroke-width="2" stroke-miterlimit="10"/>
<path d="M246.309 8.82373C247.128 57.1173 227.597 85.154 207.272 101.981C206.776 102.379 206.28 102.801 205.783 103.199" stroke="#212121" stroke-width="2" stroke-miterlimit="10"/>
</g>
<defs>
<clipPath id="clip0_46_702">
<rect width="261" height="133" fill="white"/>
</clipPath>
</defs>
</svg>
