<svg width="219" height="268" viewBox="0 0 219 268" fill="none" xmlns="http://www.w3.org/2000/svg">
<g clip-path="url(#clip0_60_510)">
<path d="M52.2773 231.5L62.5173 223.929C67.8692 227.643 73.6493 230.5 79.8932 232.5C86.1371 234.5 92.5237 235.5 99.053 235.5C104.69 235.5 109.935 234.679 114.752 233.036C119.569 231.393 123.779 229 127.347 225.786C130.915 222.607 133.698 218.679 135.696 214.071C137.694 209.464 138.693 204.25 138.693 198.464C138.693 192.679 137.587 187.429 135.339 183.214C133.091 179 130.165 175.214 126.562 171.964C122.958 168.714 118.784 165.714 114.11 163.036C109.436 160.357 104.655 157.714 99.7666 155.143C94.8785 152.536 90.0975 149.786 85.4235 146.893C80.7495 144 76.5393 140.571 72.8287 136.643C69.118 132.714 66.1566 128.179 63.9088 123.036C61.6967 117.929 60.555 111.786 60.555 104.643C60.555 98.5357 61.6253 93.2143 63.8018 88.6072C65.9425 84 68.9039 80.2143 72.7216 77.25C76.5036 74.2857 80.9279 72.0358 85.9587 70.5715C90.9895 69.0715 96.3414 68.3572 101.979 68.3572C105.725 68.3572 109.4 68.75 112.932 69.5715C114.681 69.9643 115.822 70.25 117 70.6786C119.212 71.5 120.889 72.5 123.172 74.0715C125.384 75.5715 128.239 77.6786 131.521 80.4643C130.986 81.5357 130.487 82.6429 129.951 83.7143C128.524 82.6072 126.455 81.1072 123.957 79.5C121.567 77.9643 118.284 75.8215 114.466 74.1429C111.898 73 105.368 70.3572 96.6625 70.3572C92.2026 70.3572 88.0281 71.1429 84.0677 72.7143C80.1429 74.2857 76.682 76.4643 73.7207 79.2857C70.7593 82.1072 68.4044 85.4643 66.6918 89.3215C64.9792 93.1786 64.1229 97.3572 64.1229 101.786C64.1229 109.964 66.0496 116.607 69.903 121.714C73.7563 126.821 78.573 131.321 84.3888 135.179C90.1688 139.036 96.4127 142.571 103.085 145.75C109.757 148.964 116.001 152.714 121.781 157C127.561 161.321 132.378 166.536 136.267 172.714C140.12 178.893 142.047 186.786 142.047 196.464C142.047 202.571 141.012 208.143 138.943 213.179C136.873 218.25 133.947 222.536 130.165 226.107C126.383 229.679 121.923 232.464 116.821 234.464C111.719 236.464 106.082 237.464 100.016 237.464C91.9885 237.464 84.0677 236.893 76.1825 235.786C68.2974 234.679 60.3766 233.214 52.3487 231.429L52.2773 231.5Z" fill="#343434"/>
<path d="M127.667 79.3214C129.308 78.2857 129.38 79 129.879 79.2857C142.01 89.8572 166.629 93.75 170.589 73.4286C174.835 36.75 140.012 15.8214 107.437 29.5714C84.4593 38.25 77.6445 64.8929 81.3195 87C84.8518 106.821 101.799 122.321 121.673 124.464C158.886 129.143 177.725 83.4286 159.172 54.7143C149.11 37.9643 125.312 29.3572 107.758 39.3214C88.5268 50.0714 77.5018 82.25 97.3396 97.5C104.725 104.107 114.394 107.821 124.206 108.821L124.135 109.536C117.498 108.857 110.933 107.036 105.046 103.821C96.4476 98.9643 88.0272 91.5357 86.4217 81.2857C84.1382 64.6786 92.7726 46.9286 107.294 38.5357C125.241 28.2857 149.646 37.0357 159.993 54.1786C183.933 94.25 146.827 144.357 102.477 119.321C81.4979 107.857 75.4681 81.3572 80.82 59.3929C83.7814 45.5714 93.6289 33.5357 106.759 28.0714C127.988 18.2857 157.673 23.8214 168.449 46.25C174.585 58.3214 178.439 76.7857 166.558 86.8572C154.569 95.7857 138.335 90.5357 127.667 82.0714C127.239 81.6429 126.454 81.6072 127.203 79.8214L127.667 79.2857V79.3214Z" fill="#343434"/>
<path d="M218.999 1.18311H1.17969V268H218.999V1.18311Z" stroke="#343434" stroke-width="6" stroke-miterlimit="10"/>
</g>
<defs>
<clipPath id="clip0_60_510">
<rect width="219" height="268" fill="white"/>
</clipPath>
</defs>
</svg>
