<svg width="61" height="54" viewBox="0 0 61 54" fill="none" xmlns="http://www.w3.org/2000/svg">
<path d="M60.8397 8.13528C60.6688 7.72584 60.3815 7.37651 60.0139 7.1313C59.6462 6.88609 59.2148 6.75598 58.7739 6.75737H50.2872C49.2688 4.96755 47.855 3.43788 46.1555 2.28683C44.4559 1.13578 42.5161 0.394231 40.4863 0.119622C38.4565 -0.154988 36.3912 0.0447073 34.4503 0.703245C32.5095 1.36178 30.7451 2.46149 29.294 3.91719C28.0234 5.16509 27.0133 6.65622 26.3229 8.30295C25.6326 9.94968 25.2759 11.7188 25.274 13.5063V15.2217C13.9119 12.2409 4.6157 3.01733 4.53195 2.90485C4.23994 2.61546 3.87453 2.41255 3.47571 2.31831C3.07689 2.22408 2.66002 2.24215 2.27071 2.37056C1.88264 2.49496 1.53513 2.72262 1.26487 3.0295C0.994613 3.33638 0.811648 3.71108 0.735298 4.11404C-1.69344 17.6682 2.35446 26.7511 6.17903 31.9816C8.09733 34.6264 10.4255 36.9431 13.0744 38.843C8.80319 43.7079 2.21488 46.2387 2.15904 46.2668C1.84399 46.3845 1.55936 46.5723 1.32637 46.8162C1.09338 47.0601 0.918023 47.3538 0.813374 47.6755C0.708725 47.9971 0.67748 48.3384 0.721964 48.6739C0.766449 49.0094 0.885517 49.3305 1.0703 49.6132C1.29363 49.9506 2.13113 51.0473 4.16904 52.0878C6.70945 53.3532 10.0594 54 14.1073 54C33.7885 54 50.2593 38.7305 51.9343 19.0742L60.3651 10.6099C60.6681 10.2846 60.8734 9.8796 60.9574 9.44168C61.0414 9.00375 61.0006 8.55082 60.8397 8.13528ZM48.1935 16.4871C47.8044 16.8758 47.5752 17.3979 47.5514 17.9494C46.4068 35.6372 31.7227 49.5007 14.1073 49.5007C11.1482 49.5007 9.08236 49.107 7.63069 48.629C10.8411 46.8855 15.3078 43.8485 18.2111 39.4898C18.3796 39.226 18.4915 38.9296 18.5396 38.6196C18.5877 38.3097 18.5709 37.9931 18.4902 37.69C18.409 37.384 18.2652 37.0983 18.0681 36.8514C17.871 36.6044 17.625 36.4016 17.3457 36.2559C17.3177 36.2278 13.1861 34.0625 9.64069 29.1414C5.6207 23.5735 3.91779 16.7964 4.58779 8.9789C8.99861 12.6346 17.4294 18.5962 27.1444 20.2271C27.4652 20.279 27.7933 20.2607 28.1065 20.1734C28.4196 20.086 28.7104 19.9317 28.959 19.721C29.202 19.5068 29.3973 19.2432 29.532 18.9475C29.6667 18.6519 29.7378 18.3309 29.7406 18.0056V13.5063C29.7448 11.4423 30.4532 9.44238 31.7472 7.84196C33.0412 6.24153 34.8421 5.13786 36.8479 4.71596C38.8538 4.29407 40.9426 4.5796 42.7643 5.52469C44.5859 6.46978 46.0297 8.01697 46.8535 9.90688C47.0315 10.3089 47.3214 10.6503 47.688 10.8899C48.0546 11.1294 48.4823 11.2568 48.9193 11.2567H53.386L48.1935 16.4871Z" fill="#424242"/>
</svg>
